<?xml version="1.0" standalone="no"?><!DOCTYPE svg PUBLIC "-//W3C//DTD SVG 1.1//EN" "http://www.w3.org/Graphics/SVG/1.1/DTD/svg11.dtd"><svg width="200" height="200" viewBox="0 0 200 200" version="1.1" xmlns="http://www.w3.org/2000/svg" xmlns:xlink="http://www.w3.org/1999/xlink"><defs><style type="text/css"><![CDATA[
@font-face { font-family: ifont; src: url("//at.alicdn.com/t/font_1442373896_4754455.eot?#iefix") format("embedded-opentype"), url("//at.alicdn.com/t/font_1442373896_4754455.woff") format("woff"), url("//at.alicdn.com/t/font_1442373896_4754455.ttf") format("truetype"), url("//at.alicdn.com/t/font_1442373896_4754455.svg#ifont") format("svg"); }

]]></style></defs><g class="transform-group"><g transform="scale(0.1953125, 0.1953125)"><path d="M923.543565 441.899432l-41.257659 0c-18.895349 0-38.907125-14.776542-44.526099-32.80208l-23.670096-57.512878c-8.93858-16.667611-5.256724-41.183981 8.019651-54.556547l29.265534-29.216415c13.420661-13.421684 13.420661-35.272341 0-48.644907L802.727942 170.618912c-13.349029-13.372565-35.199687-13.372565-48.596811 0l-29.265534 29.216415c-13.275351 13.32447-37.886889 17.006326-54.555523 8.042163l-57.462736-23.64349c-17.97642-5.572926-32.80208-25.63075-32.80208-44.527123L580.045257 98.473779c0-18.884093-15.530718-34.387181-34.352389-34.387181l-68.680219 0c-18.920932 0-34.425044 15.504112-34.425044 34.387181l0 41.2331c0 18.896372-14.705933 38.954197-32.752961 44.527123L352.297206 207.877491c-16.691147 8.963139-41.158399 5.329379-54.506405-8.042163l-29.338189-29.216415c-13.373589-13.372565-35.225269-13.372565-48.548716 0l-48.573275 48.548716c-13.397125 13.372565-13.397125 35.223223 0 48.595788l29.191856 29.265534c13.397125 13.372565 17.030885 37.888935 8.042163 54.556547l-23.64349 57.560974c-5.619998 18.024515-25.63075 32.80208-44.551682 32.80208l-41.208541-0.048095c-18.895349 0-34.375925 15.456017-34.375925 34.352389l0 68.704778c0 18.897396 15.480576 34.400484 34.375925 34.400484l41.208541 0c18.920932 0.046049 38.907125 14.778588 44.478004 32.801057l23.717168 57.512878c8.916067 16.71366 5.329379 41.330314-8.042163 54.607712l-29.264511 29.211299c-13.32447 13.373589-13.32447 35.229362 0 48.649l48.64593 48.595788c13.323447 13.322423 35.175127 13.322423 48.548716 0l29.287023-29.263487c13.301957-13.32754 37.841863-16.9613 54.43682-7.946996l57.658188 23.645536c18.047028 5.617951 32.752961 25.63075 32.752961 44.573171l0 41.086767c0 18.8493 15.45704 34.352389 34.425044 34.352389l68.680219 0c18.822694 0 34.352389-15.503089 34.352389-34.352389l0-41.086767c0-18.942421 14.824637-38.954197 32.80208-44.573171l57.55995-23.645536c16.644075-9.015328 41.231053-5.381567 54.603619 7.946996l29.120224 29.263487c13.397125 13.322423 35.247782 13.322423 48.596811 0l48.64593-48.595788c13.420661-13.419637 13.420661-35.275411 0-48.649l-29.265534-29.211299c-13.276375-13.278421-16.95823-37.894052-8.019651-54.607712l23.670096-57.512878c5.618974-18.021445 25.728988-32.755008 44.526099-32.755008l41.257659 0c18.87079 0 34.302247-15.454994 34.302247-34.398438l0-68.752874C957.845813 457.356472 942.414355 441.899432 923.543565 441.899432M683.15052 510.554068c0 94.919836-76.893274 171.760922-171.71385 171.760922-94.892207 0-171.785481-76.841086-171.785481-171.760922 0-94.817506 76.892251-171.71078 171.785481-171.71078C606.257246 338.843288 683.15052 415.736563 683.15052 510.554068" fill="#ecf0f1"></path></g></g></svg>