<?xml version="1.0" standalone="no"?><!DOCTYPE svg PUBLIC "-//W3C//DTD SVG 1.1//EN" "http://www.w3.org/Graphics/SVG/1.1/DTD/svg11.dtd"><svg width="400" height="200" viewBox="0 0 400 200" version="1.1" xmlns="http://www.w3.org/2000/svg" xmlns:xlink="http://www.w3.org/1999/xlink"><defs><style type="text/css"><![CDATA[
@font-face { font-family: ifont; src: url("//at.alicdn.com/t/font_1442373896_4754455.eot?#iefix") format("embedded-opentype"), url("//at.alicdn.com/t/font_1442373896_4754455.woff") format("woff"), url("//at.alicdn.com/t/font_1442373896_4754455.ttf") format("truetype"), url("//at.alicdn.com/t/font_1442373896_4754455.svg#ifont") format("svg"); }

]]></style></defs><g class="transform-group"><g transform="scale(0.1953125, 0.1953125)"><path d="M272.704 303.328c115.264 0 208.672 93.44 208.672 208.672 0 115.328-93.408 208.672-208.672 208.672C157.408 720.672 64 627.328 64 512 64 396.736 157.408 303.328 272.704 303.328zM1024 303.328c115.328 0 208.672 93.44 208.672 208.672 0 115.328-93.44 208.672-208.672 208.672-115.264 0-208.704-93.44-208.704-208.672S908.736 303.328 1024 303.328zM1775.328 303.328C1890.624 303.328 1984 396.736 1984 512c0 115.328-93.44 208.672-208.672 208.672-115.296 0-208.672-93.44-208.672-208.672C1566.592 396.736 1660.032 303.328 1775.328 303.328z" fill="#a9b7b7"></path></g></g></svg>