<?xml version="1.0" standalone="no"?><!DOCTYPE svg PUBLIC "-//W3C//DTD SVG 1.1//EN" "http://www.w3.org/Graphics/SVG/1.1/DTD/svg11.dtd"><svg width="200" height="200" viewBox="0 0 200 200" version="1.1" xmlns="http://www.w3.org/2000/svg" xmlns:xlink="http://www.w3.org/1999/xlink"><defs><style type="text/css"><![CDATA[
@font-face { font-family: ifont; src: url("//at.alicdn.com/t/font_1442373896_4754455.eot?#iefix") format("embedded-opentype"), url("//at.alicdn.com/t/font_1442373896_4754455.woff") format("woff"), url("//at.alicdn.com/t/font_1442373896_4754455.ttf") format("truetype"), url("//at.alicdn.com/t/font_1442373896_4754455.svg#ifont") format("svg"); }

]]></style></defs><g class="transform-group"><g transform="scale(0.1953125, 0.1953125)"><path d="M256.87595 547.32146c2.484587-38.803771 14.666024-93.844342 28.611641-123.770931 94.872764-203.574488 347.737866-241.566778 493.225401-106.551758 184.966689 171.654498 98.162694 451.625958-95.115288 517.912663C444.918697 916.77286 261.845125 734.706221 256.87595 547.32146L256.87595 547.32146zM64.739978 361.810373c0 24.387433 16.9613 39.753399 33.127492 39.753399 58.069557 0 30.649044-46.5195 111.586424-146.801461 25.474185-31.565926 70.466911-66.198701 107.248629-84.887342 62.673411-32.305777 25.210172-75.138304 3.157923-79.363536-1.165546-0.223081-2.291183-0.339738-3.355421-0.339738C225.449193 92.185562 57.318962 278.226722 64.739978 361.810373L64.739978 361.810373zM515.263835 335.308789l0 271.640724c0 15.449877 17.677615 33.125445 33.127492 33.125445l231.887324 0c37.162388 0 54.647621-79.501682-13.251815-79.501682L594.767564 560.573275 594.767564 355.186512C594.767564 291.713898 515.263835 298.587446 515.263835 335.308789L515.263835 335.308789zM606.896812 931.590334c74.42506-7.78429 148.69253-37.579897 216.029148-89.855494 70.967308-55.097876 136.236847-169.390945 136.236847-261.286911 3.978614-121.325229-27.119661-226.201835-124.254955-319.644017C567.607994 24.593118 177.371198 231.249805 177.371198 547.32146c-2.983961 76.488045 28.318976 154.308435 66.532299 212.726939 9.889231 16.216333 26.578332 36.164664 40.99774 50.763151 70.100568 70.960145 154.957211 111.477954 243.014756 120.778784C552.92969 934.540526 579.230706 934.608064 606.896812 931.590334z" fill="#a9b7b7"></path></g></g></svg>